<svg width="26" height="26" viewBox="0 0 26 26" fill="none" xmlns="http://www.w3.org/2000/svg">
<path d="M25.1016 13C25.1016 6.09635 19.5052 0.5 12.6016 0.5C5.69792 0.5 0.101562 6.09635 0.101562 13C0.101562 19.2396 4.6724 24.4104 10.6484 25.3479V16.6135H7.47448V13H10.6484V10.2458C10.6484 7.11354 12.5146 5.38281 15.3698 5.38281C16.7375 5.38281 18.1677 5.62708 18.1677 5.62708V8.70312H16.5917C15.0391 8.70312 14.5547 9.66667 14.5547 10.6552V13H18.0214L17.4672 16.6135H14.5547V25.3479C20.5307 24.4104 25.1016 19.2396 25.1016 13Z" fill="#1877F2"/>
<path d="M17.4654 16.6135L18.0195 13H14.5529V10.6552C14.5529 9.66667 15.0372 8.70312 16.5898 8.70312H18.1659V5.62708C18.1659 5.62708 16.7357 5.38281 15.368 5.38281C12.5128 5.38281 10.6466 7.11302 10.6466 10.2458V13H7.47266V16.6135H10.6466V25.3479C11.9408 25.5511 13.2587 25.5511 14.5529 25.3479V16.6135H17.4654Z" fill="white"/>
</svg>
