<svg width="26" height="26" viewBox="0 0 26 26" fill="none" xmlns="http://www.w3.org/2000/svg">
<path d="M12.6016 0.5C19.5047 0.5 25.1016 6.09687 25.1016 13C25.1016 19.9031 19.5047 25.5 12.6016 25.5C5.69844 25.5 0.101562 19.9031 0.101562 13C0.101562 6.09687 5.69844 0.5 12.6016 0.5Z" fill="#E1306C"/>
<path d="M12.8536 5.96875C10.8745 5.96875 10.6276 5.97708 9.85052 6.0125C9.07552 6.04792 8.54635 6.17083 8.08281 6.35104C7.60365 6.5375 7.1974 6.78646 6.79323 7.19167C6.42254 7.55526 6.13566 7.99535 5.9526 8.48125C5.7724 8.94479 5.64948 9.47396 5.61406 10.249C5.57865 11.026 5.57031 11.274 5.57031 13.2521C5.57031 15.2302 5.57865 15.4781 5.61406 16.2542C5.64948 17.0302 5.7724 17.5594 5.9526 18.0229C6.13906 18.5021 6.38802 18.9083 6.79323 19.3125C7.1974 19.7177 7.60365 19.9667 8.08281 20.1521C8.54635 20.3323 9.07552 20.4552 9.85052 20.4906C10.6276 20.526 10.8755 20.5344 12.8536 20.5344C14.8318 20.5344 15.0797 20.526 15.8557 20.4906C16.6318 20.4552 17.1609 20.3323 17.6245 20.1521C18.1102 19.9692 18.5503 19.6827 18.9141 19.3125C19.3193 18.9073 19.5682 18.501 19.7536 18.0229C19.9339 17.5594 20.0568 17.0302 20.0922 16.2542C20.1276 15.4781 20.1359 15.2302 20.1359 13.2521C20.1359 11.2729 20.1276 11.026 20.0922 10.249C20.0568 9.47396 19.9339 8.94479 19.7536 8.48125C19.5708 7.99548 19.2843 7.5554 18.9141 7.19167C18.5504 6.82103 18.1103 6.53416 17.6245 6.35104C17.1609 6.17083 16.6318 6.04792 15.8557 6.0125C15.0797 5.97708 14.8318 5.96875 12.8536 5.96875ZM12.8536 7.28125C14.7984 7.28125 15.0286 7.28854 15.7964 7.32292C16.5068 7.35625 16.8922 7.475 17.1484 7.57396C17.4891 7.70625 17.7318 7.86458 17.9859 8.11875C18.2411 8.37396 18.3984 8.61667 18.5307 8.95625C18.6307 9.21354 18.7495 9.59896 18.7818 10.3083C18.8172 11.0771 18.8234 11.3073 18.8234 13.2521C18.8234 15.1969 18.8172 15.4271 18.7818 16.1948C18.7495 16.9052 18.6307 17.2906 18.5318 17.5469C18.3984 17.8875 18.2401 18.1302 17.9859 18.3844C17.7509 18.6262 17.4648 18.8124 17.1484 18.9292C16.8922 19.0292 16.5068 19.1479 15.7964 19.1792C15.0286 19.2156 14.7984 19.2229 12.8536 19.2229C10.9089 19.2229 10.6786 19.2156 9.91094 19.1802C9.20052 19.1479 8.8151 19.0292 8.55781 18.9302C8.24136 18.8131 7.95518 18.6266 7.72031 18.3844C7.47844 18.1494 7.29228 17.8632 7.17552 17.5469C7.07656 17.2906 6.95677 16.9052 6.92552 16.1948C6.8901 15.4271 6.88281 15.1969 6.88281 13.2521C6.88281 11.3073 6.8901 11.0771 6.92448 10.3083C6.95781 9.59896 7.07656 9.21354 7.17552 8.95625C7.30781 8.61667 7.46615 8.37292 7.72031 8.11875C7.97552 7.86458 8.21823 7.70625 8.55781 7.57396C8.8151 7.475 9.20052 7.35521 9.91094 7.32396C10.6786 7.28854 10.9089 7.28125 12.8536 7.28125Z" fill="white"/>
<path d="M12.8529 15.6793C12.2092 15.6793 11.5918 15.4236 11.1367 14.9684C10.6815 14.5132 10.4258 13.8959 10.4258 13.2522C10.4258 12.6085 10.6815 11.9911 11.1367 11.536C11.5918 11.0808 12.2092 10.8251 12.8529 10.8251C13.4966 10.8251 14.1139 11.0808 14.5691 11.536C15.0242 11.9911 15.2799 12.6085 15.2799 13.2522C15.2799 13.8959 15.0242 14.5132 14.5691 14.9684C14.1139 15.4236 13.4966 15.6793 12.8529 15.6793ZM12.8529 9.5126C12.3618 9.5126 11.8755 9.60932 11.4218 9.79726C10.9681 9.98519 10.5558 10.2606 10.2086 10.6079C9.86133 10.9551 9.58587 11.3674 9.39794 11.8211C9.21001 12.2748 9.11328 12.7611 9.11328 13.2522C9.11328 13.7433 9.21001 14.2295 9.39794 14.6833C9.58587 15.137 9.86133 15.5492 10.2086 15.8965C10.5558 16.2437 10.9681 16.5192 11.4218 16.7071C11.8755 16.895 12.3618 16.9918 12.8529 16.9918C13.8447 16.9918 14.7958 16.5978 15.4971 15.8965C16.1985 15.1952 16.5924 14.244 16.5924 13.2522C16.5924 12.2604 16.1985 11.3092 15.4971 10.6079C14.7958 9.90659 13.8447 9.5126 12.8529 9.5126ZM17.6143 9.36468C17.6143 9.59647 17.5222 9.81876 17.3583 9.98266C17.1944 10.1466 16.9722 10.2386 16.7404 10.2386C16.5086 10.2386 16.2863 10.1466 16.1224 9.98266C15.9585 9.81876 15.8664 9.59647 15.8664 9.36468C15.8664 9.13289 15.9585 8.9106 16.1224 8.7467C16.2863 8.5828 16.5086 8.49072 16.7404 8.49072C16.9722 8.49072 17.1944 8.5828 17.3583 8.7467C17.5222 8.9106 17.6143 9.13289 17.6143 9.36468Z" fill="white"/>
</svg>
