<svg width="26" height="26" viewBox="0 0 26 26" fill="none" xmlns="http://www.w3.org/2000/svg">
<path d="M13.1016 0.5C20.0052 0.5 25.6016 6.09635 25.6016 13C25.6016 19.9036 20.0052 25.5 13.1016 25.5C6.19792 25.5 0.601562 19.9036 0.601562 13C0.601562 6.09635 6.19792 0.5 13.1016 0.5Z" fill="#1DA1F2"/>
<path d="M10.8133 19.5938C16.357 19.5938 19.3883 15 19.3883 11.0188C19.3883 10.8875 19.3883 10.7563 19.382 10.6313C19.9724 10.2035 20.4824 9.67445 20.8883 9.06877C20.3377 9.31138 19.7543 9.47144 19.157 9.54377C19.7873 9.16754 20.2584 8.57413 20.482 7.87502C19.8903 8.22473 19.2437 8.47196 18.5695 8.60627C18.2878 8.30519 17.9471 8.06543 17.5685 7.90198C17.19 7.73852 16.7818 7.65488 16.3695 7.65627C15.5707 7.65668 14.8047 7.9742 14.2398 8.53907C13.675 9.10393 13.3574 9.86993 13.357 10.6688C13.357 10.9063 13.382 11.1375 13.4383 11.3563C10.932 11.2313 8.71328 10.0313 7.22578 8.20627C6.95987 8.666 6.81975 9.18767 6.81953 9.71877C6.81872 10.2151 6.94106 10.7038 7.17558 11.1412C7.41009 11.5786 7.74947 11.951 8.16328 12.225C7.6855 12.2118 7.21802 12.0832 6.80078 11.85V11.8875C6.80101 12.5837 7.04196 13.2583 7.48279 13.7971C7.92362 14.3359 8.53721 14.7057 9.21953 14.8438C8.96953 14.9125 8.70078 14.95 8.42578 14.95C8.23203 14.95 8.04453 14.9313 7.85703 14.8938C8.04827 15.4929 8.4224 16.017 8.92686 16.3926C9.43131 16.7681 10.0407 16.9762 10.6695 16.9875C9.60101 17.8238 8.28267 18.2772 6.92578 18.275C6.68203 18.275 6.44453 18.2625 6.20703 18.2313C7.57701 19.1243 9.17795 19.5978 10.8133 19.5938Z" fill="white"/>
</svg>
